<?xml version="1.0" encoding="UTF-8"?>
<svg xmlns="http://www.w3.org/2000/svg" viewBox="0 0 16 10" width="16" height="10" aria-label="Flag of Canada">
  <!-- Canada flag 16x10: red 4u bands, white 8u center -->
  <rect x="0" y="0" width="16" height="10" fill="#fff"/>
  <rect x="0" y="0" width="4" height="10" fill="#ff0000"/>
  <rect x="12" y="0" width="4" height="10" fill="#ff0000"/>

  <!-- Maple leaf: stylized, multi-lobed path, centered at (8,5) -->
  <g transform="translate(8,5)">
    <!-- More recognizable maple leaf with deep notches and lobes -->
    <path fill="#ff0000" d="
      M 0 -4.2
      L 0.5 -3.0
      L 1.2 -3.6
      L 1.0 -2.3
      L 2.2 -2.6
      L 1.5 -1.4
      L 2.9 -1.3
      L 1.7 -0.4
      L 2.1 0.8
      L 1.0 0.3
      L 0.7 1.8
      L 0 1.2
      L -0.7 1.8
      L -1.0 0.3
      L -2.1 0.8
      L -1.7 -0.4
      L -2.9 -1.3
      L -1.5 -1.4
      L -2.2 -2.6
      L -1.0 -2.3
      L -1.2 -3.6
      L -0.5 -3.0 Z"/>
    <!-- Stem -->
    <rect x="-0.22" y="1.2" width="0.44" height="2.1" fill="#ff0000"/>
  </g>
</svg>


