<svg xmlns="http://www.w3.org/2000/svg" xmlns:xlink="http://www.w3.org/1999/xlink" width="500" zoomAndPan="magnify" viewBox="0 0 375 374.999991" height="500" preserveAspectRatio="xMidYMid meet" version="1.0"><defs><clipPath id="27028f6e79"><path d="M 69.804688 102.105469 L 305.304688 102.105469 L 305.304688 337.605469 L 69.804688 337.605469 Z M 69.804688 102.105469 " clip-rule="nonzero"/></clipPath><clipPath id="396ddd55fe"><path d="M 144.824219 39 L 178 39 L 178 82 L 144.824219 82 Z M 144.824219 39 " clip-rule="nonzero"/></clipPath><clipPath id="a5d85ce25c"><path d="M 197 39 L 230.324219 39 L 230.324219 82 L 197 82 Z M 197 39 " clip-rule="nonzero"/></clipPath><clipPath id="74c1323355"><path d="M 158 17.289062 L 217 17.289062 L 217 40 L 158 40 Z M 158 17.289062 " clip-rule="nonzero"/></clipPath></defs><g clip-path="url(#27028f6e79)"><path fill="#ffbd59" d="M 270.714844 136.578125 C 249.421875 115.289062 220.007812 102.113281 187.519531 102.105469 C 187.511719 102.105469 187.5 102.105469 187.496094 102.105469 C 187.488281 102.105469 187.476562 102.105469 187.472656 102.105469 C 154.980469 102.113281 125.566406 115.289062 104.273438 136.578125 C 97.773438 143.082031 92.035156 150.34375 87.191406 158.214844 C 87.097656 158.34375 87.015625 158.472656 86.945312 158.617188 C 76.070312 176.445312 69.804688 197.390625 69.804688 219.796875 C 69.804688 242.207031 76.070312 263.148438 86.9375 280.980469 C 87.015625 281.121094 87.097656 281.25 87.1875 281.378906 C 92.027344 289.253906 97.773438 296.515625 104.273438 303.015625 C 125.570312 324.3125 155 337.488281 187.496094 337.488281 C 219.988281 337.488281 249.417969 324.3125 270.714844 303.015625 C 292.011719 281.722656 305.1875 252.292969 305.1875 219.796875 C 305.1875 187.304688 292.011719 157.875 270.714844 136.578125 Z M 283.90625 272.996094 L 259.792969 273.292969 C 265.09375 258.199219 268.230469 241.210938 268.582031 223.226562 L 297.523438 223.539062 C 296.929688 241.433594 292.0625 258.246094 283.90625 272.996094 Z M 77.410156 221.179688 L 106.382812 221.492188 C 106.570312 240.839844 109.972656 259.070312 115.839844 275.089844 L 92.441406 275.382812 C 83.097656 259.4375 77.652344 240.933594 77.410156 221.179688 Z M 92.441406 164.21875 L 115.839844 164.511719 C 110.394531 179.371094 107.070312 196.136719 106.464844 213.929688 L 77.570312 213.617188 C 78.566406 195.664062 83.855469 178.863281 92.441406 164.21875 Z M 220.601562 215.15625 C 220.417969 197.382812 219.1875 180.625 217.148438 165.769531 L 251.710938 166.199219 C 257.222656 180.914062 260.523438 197.695312 260.976562 215.585938 Z M 187.496094 329.898438 C 181.339844 329.890625 175.261719 318.242188 170.40625 299.398438 C 169.039062 294.109375 167.816406 288.28125 166.75 282.007812 L 208.324219 281.492188 C 207.238281 287.957031 205.976562 293.960938 204.582031 299.398438 C 199.730469 318.242188 193.648438 329.898438 187.496094 329.898438 Z M 165.574219 274.464844 C 163.355469 258.929688 162.054688 241.101562 161.960938 222.082031 L 213.035156 222.628906 C 212.914062 241.21875 211.652344 258.660156 209.496094 273.917969 Z M 161.984375 214.523438 C 162.195312 196.628906 163.472656 179.851562 165.574219 165.128906 L 209.496094 165.675781 C 211.574219 180.417969 212.828125 197.195312 213.015625 215.074219 Z M 166.75 157.582031 C 167.824219 151.308594 169.046875 145.480469 170.40625 140.191406 C 175.261719 121.355469 181.34375 109.699219 187.496094 109.699219 C 193.648438 109.699219 199.730469 121.355469 204.578125 140.195312 C 205.976562 145.628906 207.230469 151.628906 208.320312 158.105469 Z M 216.003906 158.199219 C 214.828125 151.007812 213.453125 144.339844 211.898438 138.332031 C 208.984375 127.015625 205.34375 117.890625 201.160156 111.621094 C 215.746094 115.757812 228.851562 126.367188 239.042969 141.386719 C 242.597656 146.621094 245.800781 152.394531 248.582031 158.605469 Z M 163.085938 138.324219 C 161.589844 144.140625 160.25 150.558594 159.09375 157.484375 L 127.082031 157.085938 C 129.707031 151.449219 132.667969 146.1875 135.933594 141.378906 C 146.125 126.367188 159.230469 115.753906 173.820312 111.617188 C 169.640625 117.882812 166.003906 127.015625 163.085938 138.324219 Z M 157.941406 165.035156 C 155.863281 179.871094 154.605469 196.648438 154.394531 214.441406 L 114.0625 214.011719 C 114.683594 196.070312 118.179688 179.277344 123.882812 164.613281 Z M 113.972656 221.570312 L 154.371094 222.003906 C 154.464844 240.976562 155.746094 258.855469 157.949219 274.566406 L 123.882812 274.988281 C 117.75 259.234375 114.179688 241.023438 113.972656 221.570312 Z M 159.09375 282.109375 C 160.25 289.03125 161.585938 295.457031 163.085938 301.269531 C 166 312.585938 169.640625 321.710938 173.824219 327.980469 C 159.238281 323.84375 146.132812 313.234375 135.941406 298.214844 C 132.675781 293.40625 129.714844 288.148438 127.089844 282.507812 Z M 211.902344 301.269531 C 213.453125 295.261719 214.828125 288.59375 216.011719 281.402344 L 248.59375 280.996094 C 245.804688 287.210938 242.609375 292.976562 239.054688 298.214844 C 228.863281 313.226562 215.757812 323.84375 201.171875 327.980469 C 205.347656 321.710938 208.984375 312.585938 211.902344 301.269531 Z M 217.148438 273.824219 C 219.257812 258.488281 220.5 241.125 220.617188 222.710938 L 260.992188 223.140625 C 260.628906 241.351562 257.304688 258.4375 251.710938 273.386719 Z M 268.566406 215.667969 C 268.140625 197.941406 265.03125 181.199219 259.792969 166.300781 L 283.90625 166.601562 C 292.046875 181.324219 296.914062 198.105469 297.519531 215.972656 Z M 265.347656 141.945312 C 270.539062 147.136719 275.203125 152.847656 279.28125 158.988281 L 256.875 158.710938 C 253.597656 150.871094 249.707031 143.632812 245.304688 137.148438 C 239.96875 129.285156 233.863281 122.519531 227.179688 117.082031 C 241.621094 122.65625 254.597656 131.1875 265.347656 141.945312 Z M 109.640625 141.945312 C 120.398438 131.195312 133.367188 122.65625 147.808594 117.078125 C 141.125 122.515625 135.023438 129.28125 129.683594 137.144531 C 125.605469 143.152344 121.964844 149.804688 118.84375 156.984375 L 97.25 156.714844 C 100.949219 151.4375 105.09375 146.488281 109.640625 141.945312 Z M 97.25 282.878906 L 118.839844 282.609375 C 121.957031 289.789062 125.601562 296.445312 129.679688 302.453125 C 135.015625 310.3125 141.117188 317.082031 147.804688 322.523438 C 133.363281 316.941406 120.386719 308.40625 109.636719 297.65625 C 105.09375 293.109375 100.949219 288.160156 97.25 282.878906 Z M 265.347656 297.652344 C 254.589844 308.402344 241.621094 316.941406 227.179688 322.519531 C 233.863281 317.082031 239.96875 310.3125 245.304688 302.445312 C 249.707031 295.960938 253.597656 288.722656 256.875 280.886719 L 279.28125 280.609375 C 275.210938 286.753906 270.539062 292.460938 265.347656 297.652344 Z M 265.347656 297.652344 " fill-opacity="1" fill-rule="nonzero"/></g><g clip-path="url(#396ddd55fe)"><path fill="#ffbd59" d="M 161.378906 45.269531 C 164.160156 52.640625 166.886719 59.863281 169.628906 67.125 L 153.132812 67.125 C 155.867188 59.878906 158.59375 52.648438 161.378906 45.269531 Z M 173.082031 67.125 C 171.617188 63.175781 170.132812 59.230469 168.644531 55.285156 C 166.78125 50.34375 164.910156 45.40625 163.046875 40.464844 C 162.707031 39.570312 162.136719 39.074219 161.40625 39.074219 C 160.597656 39.078125 160.082031 39.507812 159.71875 40.46875 C 158.894531 42.640625 158.066406 44.8125 157.246094 46.984375 C 155.894531 50.554688 154.546875 54.121094 153.199219 57.6875 C 152.011719 60.832031 150.824219 63.980469 149.648438 67.125 L 144.84375 67.125 C 144.84375 67.195312 144.839844 67.269531 144.839844 67.339844 C 144.839844 75.308594 152.230469 81.773438 161.347656 81.773438 C 170.464844 81.773438 177.855469 75.308594 177.855469 67.339844 C 177.855469 67.269531 177.851562 67.195312 177.851562 67.125 L 173.082031 67.125 " fill-opacity="1" fill-rule="nonzero"/></g><g clip-path="url(#a5d85ce25c)"><path fill="#ffbd59" d="M 213.667969 45.269531 C 216.445312 52.628906 219.171875 59.847656 221.917969 67.125 L 205.421875 67.125 C 208.15625 59.878906 210.878906 52.65625 213.667969 45.269531 Z M 230.203125 67.125 L 225.402344 67.125 C 224.925781 65.835938 224.445312 64.546875 223.957031 63.257812 C 221.832031 57.644531 219.703125 52.035156 217.574219 46.421875 C 216.800781 44.375 216.035156 42.324219 215.253906 40.28125 C 214.949219 39.488281 214.375 39.058594 213.699219 39.074219 C 212.945312 39.089844 212.363281 39.496094 212.09375 40.210938 C 210.640625 44.050781 209.1875 47.894531 207.742188 51.738281 C 205.8125 56.863281 203.878906 61.992188 201.972656 67.125 L 197.199219 67.125 C 197.199219 67.195312 197.191406 67.269531 197.191406 67.339844 C 197.191406 75.308594 204.582031 81.773438 213.703125 81.773438 C 222.820312 81.773438 230.210938 75.308594 230.210938 67.339844 C 230.210938 67.269531 230.203125 67.195312 230.203125 67.125 " fill-opacity="1" fill-rule="nonzero"/></g><path fill="#ffbd59" d="M 207.109375 99.523438 L 207.109375 97.695312 C 207.109375 95.945312 205.691406 94.527344 203.941406 94.527344 L 197.203125 94.527344 C 196.625 90.984375 194.722656 88.390625 191.320312 86.90625 C 190.886719 86.710938 190.765625 86.488281 190.765625 86.046875 C 190.777344 73.695312 190.777344 61.34375 190.765625 48.992188 C 190.765625 48.59375 190.878906 48.339844 191.199219 48.085938 C 192.734375 46.875 193.589844 45.300781 193.628906 43.214844 C 189.523438 43.214844 185.492188 43.214844 181.425781 43.214844 C 181.457031 45.316406 182.34375 46.875 183.871094 48.136719 C 184.078125 48.304688 184.257812 48.644531 184.257812 48.90625 C 184.277344 61.304688 184.273438 73.699219 184.28125 86.09375 C 184.28125 86.523438 184.132812 86.726562 183.734375 86.894531 C 180.96875 88.050781 179.132812 90.09375 178.210938 92.933594 C 178.046875 93.445312 177.9375 93.980469 177.828125 94.527344 L 170.691406 94.527344 C 168.945312 94.527344 167.527344 95.945312 167.527344 97.695312 L 167.527344 101.984375 L 207.109375 101.984375 L 207.109375 101.972656 C 207.109375 101.136719 207.117188 100.332031 207.109375 99.523438 " fill-opacity="1" fill-rule="nonzero"/><g clip-path="url(#74c1323355)"><path fill="#ffbd59" d="M 187.316406 36.167969 C 185.921875 36.167969 184.792969 35.035156 184.792969 33.640625 C 184.792969 32.246094 185.921875 31.113281 187.316406 31.113281 C 188.714844 31.113281 189.847656 32.246094 189.847656 33.640625 C 189.847656 35.035156 188.714844 36.167969 187.316406 36.167969 Z M 216.570312 31.839844 C 215.800781 30.339844 213.808594 29.511719 212.34375 30.460938 C 211.222656 31.183594 210.5 30.785156 209.605469 30.355469 C 209.382812 30.25 209.160156 30.136719 208.941406 30.023438 C 206.625 28.84375 204.289062 27.71875 201.71875 27.175781 C 200.195312 26.855469 198.6875 26.765625 197.140625 27.011719 C 195.171875 27.320312 193.460938 28.160156 191.988281 29.339844 C 191.15625 28.785156 190.378906 28.261719 189.566406 27.722656 C 189.714844 27.59375 189.855469 27.457031 190.003906 27.332031 C 191.195312 26.332031 191.6875 24.835938 191.167969 23.367188 C 190.375 21.128906 188.96875 19.253906 187.578125 17.355469 C 186.710938 18.195312 184.769531 21.253906 184.164062 22.597656 C 183.699219 23.632812 183.457031 24.707031 183.917969 25.742188 C 184.257812 26.496094 184.867188 27.128906 185.351562 27.808594 C 184.679688 28.257812 183.898438 28.777344 183.058594 29.335938 C 180.578125 27.335938 177.714844 26.546875 174.53125 26.964844 C 172.59375 27.21875 170.746094 27.8125 168.976562 28.636719 C 167.398438 29.367188 165.847656 30.160156 164.269531 30.882812 C 164.042969 30.988281 163.632812 30.960938 163.441406 30.820312 C 161.859375 29.675781 159.835938 29.945312 158.691406 31.492188 C 157.652344 32.898438 158.007812 34.976562 159.480469 36.074219 C 160.863281 37.105469 163.09375 36.808594 164.015625 35.257812 C 164.570312 34.320312 165.375 33.988281 166.21875 33.574219 C 166.582031 33.398438 166.953125 33.230469 167.316406 33.050781 C 169.46875 32.003906 171.582031 30.890625 173.953125 30.367188 C 176.671875 29.765625 179.109375 30.230469 181.226562 32.082031 C 181.445312 32.273438 181.574219 32.636719 181.628906 32.941406 C 181.765625 33.6875 181.726562 34.476562 181.949219 35.191406 C 182.863281 38.109375 185.703125 39.753906 188.699219 39.175781 C 191.570312 38.625 193.609375 35.914062 193.417969 32.945312 C 193.402344 32.691406 193.535156 32.351562 193.722656 32.179688 C 195.34375 30.675781 197.28125 29.960938 199.480469 30.125 C 201.414062 30.269531 203.234375 30.886719 204.980469 31.714844 C 206.730469 32.546875 208.488281 33.371094 210.234375 34.222656 C 210.40625 34.304688 210.546875 34.515625 210.632812 34.699219 C 211.445312 36.457031 213.652344 37.199219 215.273438 36.253906 C 216.828125 35.34375 217.386719 33.441406 216.570312 31.839844 " fill-opacity="1" fill-rule="nonzero"/></g></svg>